{
	"asset":{
		"generator":"Khronos glTF Blender I/O v4.3.47",
		"version":"2.0"
	},
	"scene":0,
	"scenes":[
		{
			"name":"Scene",
			"nodes":[
				0,
				1,
				2
			]
		}
	],
	"nodes":[
		{
			"mesh":0,
			"name":"Cube.001",
			"rotation":[
				0.7071068286895752,
				0,
				0,
				0.7071068286895752
			]
		},
		{
			"mesh":1,
			"name":"Cube.002",
			"rotation":[
				0.7071068286895752,
				0,
				0,
				0.7071068286895752
			]
		},
		{
			"mesh":2,
			"name":"Cube.003",
			"rotation":[
				0.7071068286895752,
				0,
				0,
				0.7071068286895752
			]
		}
	],
	"materials":[
		{
			"doubleSided":true,
			"name":"Material.001",
			"pbrMetallicRoughness":{
				"baseColorFactor":[
					0.11674299836158752,
					0.4712670147418976,
					0.8012589812278748,
					1
				],
				"metallicFactor":0,
				"roughnessFactor":0.5
			}
		},
		{
			"doubleSided":true,
			"name":"Material.002",
			"pbrMetallicRoughness":{
				"baseColorFactor":[
					0.13544300198554993,
					0.33646801114082336,
					0.8006790280342102,
					1
				],
				"metallicFactor":0,
				"roughnessFactor":0.5
			}
		},
		{
			"doubleSided":true,
			"name":"Material.003",
			"pbrMetallicRoughness":{
				"baseColorFactor":[
					0.3970229923725128,
					0.6164399981498718,
					1,
					1
				],
				"metallicFactor":0,
				"roughnessFactor":0.5
			}
		}
	],
	"meshes":[
		{
			"name":"Cube.001",
			"primitives":[
				{
					"attributes":{
						"POSITION":0,
						"NORMAL":1,
						"TEXCOORD_0":2,
						"TANGENT":3
					},
					"indices":4,
					"material":0
				}
			]
		},
		{
			"name":"Cube.002",
			"primitives":[
				{
					"attributes":{
						"POSITION":5,
						"NORMAL":6,
						"TEXCOORD_0":7,
						"TANGENT":8
					},
					"indices":9,
					"material":1
				},
				{
					"attributes":{
						"POSITION":10
					},
					"indices":11,
					"material":1,
					"mode":1
				}
			]
		},
		{
			"name":"Cube.003",
			"primitives":[
				{
					"attributes":{
						"POSITION":12,
						"NORMAL":13,
						"TEXCOORD_0":14,
						"TANGENT":15
					},
					"indices":16,
					"material":2
				}
			]
		}
	],
	"accessors":[
		{
			"bufferView":0,
			"componentType":5126,
			"count":264,
			"max":[
				3.6020169258117676,
				1.3928710222244263,
				0.26041099429130554
			],
			"min":[
				-3.6020169258117676,
				-1.3928710222244263,
				-0.26041099429130554
			],
			"type":"VEC3"
		},
		{
			"bufferView":1,
			"componentType":5126,
			"count":264,
			"type":"VEC3"
		},
		{
			"bufferView":2,
			"componentType":5126,
			"count":264,
			"type":"VEC2"
		},
		{
			"bufferView":3,
			"componentType":5126,
			"count":264,
			"type":"VEC4"
		},
		{
			"bufferView":4,
			"componentType":5123,
			"count":468,
			"type":"SCALAR"
		},
		{
			"bufferView":5,
			"componentType":5126,
			"count":104,
			"max":[
				3.4642159938812256,
				1.4328709840774536,
				0.26041099429130554
			],
			"min":[
				-2.6221909523010254,
				-1.4328709840774536,
				-0.29964199662208557
			],
			"type":"VEC3"
		},
		{
			"bufferView":6,
			"componentType":5126,
			"count":104,
			"type":"VEC3"
		},
		{
			"bufferView":7,
			"componentType":5126,
			"count":104,
			"type":"VEC2"
		},
		{
			"bufferView":8,
			"componentType":5126,
			"count":104,
			"type":"VEC4"
		},
		{
			"bufferView":9,
			"componentType":5123,
			"count":180,
			"type":"SCALAR"
		},
		{
			"bufferView":10,
			"componentType":5126,
			"count":8,
			"max":[
				3.4642159938812256,
				1.4328709840774536,
				0.26041099429130554
			],
			"min":[
				-2.6221909523010254,
				-1.4328709840774536,
				0.26041099429130554
			],
			"type":"VEC3"
		},
		{
			"bufferView":11,
			"componentType":5123,
			"count":8,
			"type":"SCALAR"
		},
		{
			"bufferView":12,
			"componentType":5126,
			"count":432,
			"max":[
				-2.289289951324463,
				1.0422090291976929,
				-0.3098199963569641
			],
			"min":[
				-3.4465761184692383,
				-1.0113970041275024,
				-0.5729489922523499
			],
			"type":"VEC3"
		},
		{
			"bufferView":13,
			"componentType":5126,
			"count":432,
			"type":"VEC3"
		},
		{
			"bufferView":14,
			"componentType":5126,
			"count":432,
			"type":"VEC2"
		},
		{
			"bufferView":15,
			"componentType":5126,
			"count":432,
			"type":"VEC4"
		},
		{
			"bufferView":16,
			"componentType":5123,
			"count":648,
			"type":"SCALAR"
		}
	],
	"bufferViews":[
		{
			"buffer":0,
			"byteLength":3168,
			"byteOffset":0,
			"target":34962
		},
		{
			"buffer":0,
			"byteLength":3168,
			"byteOffset":3168,
			"target":34962
		},
		{
			"buffer":0,
			"byteLength":2112,
			"byteOffset":6336,
			"target":34962
		},
		{
			"buffer":0,
			"byteLength":4224,
			"byteOffset":8448,
			"target":34962
		},
		{
			"buffer":0,
			"byteLength":936,
			"byteOffset":12672,
			"target":34963
		},
		{
			"buffer":0,
			"byteLength":1248,
			"byteOffset":13608,
			"target":34962
		},
		{
			"buffer":0,
			"byteLength":1248,
			"byteOffset":14856,
			"target":34962
		},
		{
			"buffer":0,
			"byteLength":832,
			"byteOffset":16104,
			"target":34962
		},
		{
			"buffer":0,
			"byteLength":1664,
			"byteOffset":16936,
			"target":34962
		},
		{
			"buffer":0,
			"byteLength":360,
			"byteOffset":18600,
			"target":34963
		},
		{
			"buffer":0,
			"byteLength":96,
			"byteOffset":18960,
			"target":34962
		},
		{
			"buffer":0,
			"byteLength":16,
			"byteOffset":19056,
			"target":34963
		},
		{
			"buffer":0,
			"byteLength":5184,
			"byteOffset":19072,
			"target":34962
		},
		{
			"buffer":0,
			"byteLength":5184,
			"byteOffset":24256,
			"target":34962
		},
		{
			"buffer":0,
			"byteLength":3456,
			"byteOffset":29440,
			"target":34962
		},
		{
			"buffer":0,
			"byteLength":6912,
			"byteOffset":32896,
			"target":34962
		},
		{
			"buffer":0,
			"byteLength":1296,
			"byteOffset":39808,
			"target":34963
		}
	],
	"buffers":[
		{
			"byteLength":41104,
			"uri":"untitled.bin"
		}
	]
}
