{
	"asset":{
		"generator":"Khronos glTF Blender I/O v4.3.47",
		"version":"2.0"
	},
	"scene":0,
	"scenes":[
		{
			"name":"Scene",
			"nodes":[
				0,
				1,
				2,
				3,
				4,
				5
			]
		}
	],
	"nodes":[
		{
			"mesh":0,
			"name":"ALMOHADA2",
			"rotation":[
				0.24957264959812164,
				0.6615992784500122,
				0.6615991592407227,
				0.2495727390050888
			],
			"scale":[
				0.027326859533786774,
				0.03004482202231884,
				0.016072550788521767
			],
			"translation":[
				0.4826827049255371,
				0.7463213205337524,
				0.3082682490348816
			]
		},
		{
			"mesh":1,
			"name":"ALMOHADA",
			"rotation":[
				0.24957266449928284,
				0.6615992188453674,
				0.6615991592407227,
				0.24957267940044403
			],
			"scale":[
				0.02647855505347252,
				0.02911214344203472,
				0.015573612414300442
			],
			"translation":[
				0.478040874004364,
				0.7478126287460327,
				-0.4766208529472351
			]
		},
		{
			"mesh":2,
			"name":"MARCO DE MADERA",
			"rotation":[
				0,
				-0.7071068286895752,
				-0.7071068286895752,
				5.338509012631221e-08
			],
			"scale":[
				0.997306227684021,
				0.9959328770637512,
				0.9959328770637512
			],
			"translation":[
				-0.018766343593597412,
				0.44494307041168213,
				-0.11585626006126404
			]
		},
		{
			"mesh":3,
			"name":"Plane",
			"scale":[
				1.8245364427566528,
				1.8245364427566528,
				1.8245364427566528
			],
			"translation":[
				-0.26290029287338257,
				1.4920902252197266,
				-0.16014015674591064
			]
		},
		{
			"mesh":4,
			"name":"Cube",
			"scale":[
				1.0319135189056396,
				0.17020449042320251,
				0.8005711436271667
			],
			"translation":[
				-0.3283332288265228,
				0.49918341636657715,
				-0.12283921241760254
			]
		},
		{
			"mesh":5,
			"name":"Cube.001",
			"scale":[
				0.0330222062766552,
				0.0330222062766552,
				0.7939680218696594
			],
			"translation":[
				0.6793421506881714,
				0.8908565044403076,
				-0.12383953481912613
			]
		}
	],
	"materials":[
		{
			"doubleSided":true,
			"name":"Velvet_Red.002",
			"pbrMetallicRoughness":{
				"baseColorFactor":[
					0.9799863696098328,
					0.9701554775238037,
					0.9701554775238037,
					1
				],
				"metallicFactor":0,
				"roughnessFactor":0.4571545422077179
			}
		},
		{
			"doubleSided":true,
			"name":"wood.001",
			"pbrMetallicRoughness":{
				"baseColorFactor":[
					0.5906190276145935,
					0.37123799324035645,
					0.16826899349689484,
					1
				],
				"metallicFactor":0
			}
		}
	],
	"meshes":[
		{
			"name":"0_Velvet Red_0.024",
			"primitives":[
				{
					"attributes":{
						"POSITION":0,
						"NORMAL":1
					},
					"indices":2,
					"material":0
				}
			]
		},
		{
			"name":"0_Velvet Red_0.025",
			"primitives":[
				{
					"attributes":{
						"POSITION":3,
						"NORMAL":4
					},
					"indices":5,
					"material":0
				}
			]
		},
		{
			"name":"bed4_wood_0.003",
			"primitives":[
				{
					"attributes":{
						"POSITION":6,
						"NORMAL":7,
						"TEXCOORD_0":8,
						"TANGENT":9
					},
					"indices":10,
					"material":1
				}
			]
		},
		{
			"name":"Plane",
			"primitives":[
				{
					"attributes":{
						"POSITION":11,
						"NORMAL":12,
						"TEXCOORD_0":13,
						"TANGENT":14
					},
					"indices":15
				}
			]
		},
		{
			"name":"Cube",
			"primitives":[
				{
					"attributes":{
						"POSITION":16,
						"NORMAL":17,
						"TEXCOORD_0":18,
						"TANGENT":19
					},
					"indices":20
				}
			]
		},
		{
			"name":"Cube.001",
			"primitives":[
				{
					"attributes":{
						"POSITION":21,
						"NORMAL":22,
						"TEXCOORD_0":23,
						"TANGENT":24
					},
					"indices":20
				}
			]
		}
	],
	"accessors":[
		{
			"bufferView":0,
			"componentType":5126,
			"count":552,
			"max":[
				5.011448860168457,
				10.322887420654297,
				7.7971343994140625
			],
			"min":[
				-6.25287389755249,
				-10.44329833984375,
				-8.014942169189453
			],
			"type":"VEC3"
		},
		{
			"bufferView":1,
			"componentType":5126,
			"count":552,
			"type":"VEC3"
		},
		{
			"bufferView":2,
			"componentType":5123,
			"count":1110,
			"type":"SCALAR"
		},
		{
			"bufferView":3,
			"componentType":5126,
			"count":552,
			"max":[
				5.014981269836426,
				12.066608428955078,
				8.963191986083984
			],
			"min":[
				-5.91060733795166,
				-11.68362808227539,
				-9.15609359741211
			],
			"type":"VEC3"
		},
		{
			"bufferView":4,
			"componentType":5126,
			"count":552,
			"type":"VEC3"
		},
		{
			"bufferView":5,
			"componentType":5123,
			"count":1110,
			"type":"SCALAR"
		},
		{
			"bufferView":6,
			"componentType":5126,
			"count":270,
			"max":[
				1.3598939180374146,
				0.800000011920929,
				0.4822308421134949
			],
			"min":[
				-0.7301057577133179,
				-0.800000011920929,
				-0.43776917457580566
			],
			"type":"VEC3"
		},
		{
			"bufferView":7,
			"componentType":5126,
			"count":270,
			"type":"VEC3"
		},
		{
			"bufferView":8,
			"componentType":5126,
			"count":270,
			"type":"VEC2"
		},
		{
			"bufferView":9,
			"componentType":5126,
			"count":270,
			"type":"VEC4"
		},
		{
			"bufferView":10,
			"componentType":5123,
			"count":372,
			"type":"SCALAR"
		},
		{
			"bufferView":11,
			"componentType":5126,
			"count":65488,
			"max":[
				0.8547393083572388,
				-0.25558528304100037,
				0.6773003339767456
			],
			"min":[
				-0.8637712001800537,
				-0.9896568655967712,
				-0.6420199275016785
			],
			"type":"VEC3"
		},
		{
			"bufferView":12,
			"componentType":5126,
			"count":65488,
			"type":"VEC3"
		},
		{
			"bufferView":13,
			"componentType":5126,
			"count":65488,
			"type":"VEC2"
		},
		{
			"bufferView":14,
			"componentType":5126,
			"count":65488,
			"type":"VEC4"
		},
		{
			"bufferView":15,
			"componentType":5123,
			"count":98304,
			"type":"SCALAR"
		},
		{
			"bufferView":16,
			"componentType":5126,
			"count":24,
			"max":[
				1,
				1,
				1
			],
			"min":[
				-1,
				-1,
				-1
			],
			"type":"VEC3"
		},
		{
			"bufferView":17,
			"componentType":5126,
			"count":24,
			"type":"VEC3"
		},
		{
			"bufferView":18,
			"componentType":5126,
			"count":24,
			"type":"VEC2"
		},
		{
			"bufferView":19,
			"componentType":5126,
			"count":24,
			"type":"VEC4"
		},
		{
			"bufferView":20,
			"componentType":5123,
			"count":36,
			"type":"SCALAR"
		},
		{
			"bufferView":21,
			"componentType":5126,
			"count":24,
			"max":[
				1,
				1,
				1
			],
			"min":[
				-1,
				-1,
				-1
			],
			"type":"VEC3"
		},
		{
			"bufferView":22,
			"componentType":5126,
			"count":24,
			"type":"VEC3"
		},
		{
			"bufferView":23,
			"componentType":5126,
			"count":24,
			"type":"VEC2"
		},
		{
			"bufferView":24,
			"componentType":5126,
			"count":24,
			"type":"VEC4"
		}
	],
	"bufferViews":[
		{
			"buffer":0,
			"byteLength":6624,
			"byteOffset":0,
			"target":34962
		},
		{
			"buffer":0,
			"byteLength":6624,
			"byteOffset":6624,
			"target":34962
		},
		{
			"buffer":0,
			"byteLength":2220,
			"byteOffset":13248,
			"target":34963
		},
		{
			"buffer":0,
			"byteLength":6624,
			"byteOffset":15468,
			"target":34962
		},
		{
			"buffer":0,
			"byteLength":6624,
			"byteOffset":22092,
			"target":34962
		},
		{
			"buffer":0,
			"byteLength":2220,
			"byteOffset":28716,
			"target":34963
		},
		{
			"buffer":0,
			"byteLength":3240,
			"byteOffset":30936,
			"target":34962
		},
		{
			"buffer":0,
			"byteLength":3240,
			"byteOffset":34176,
			"target":34962
		},
		{
			"buffer":0,
			"byteLength":2160,
			"byteOffset":37416,
			"target":34962
		},
		{
			"buffer":0,
			"byteLength":4320,
			"byteOffset":39576,
			"target":34962
		},
		{
			"buffer":0,
			"byteLength":744,
			"byteOffset":43896,
			"target":34963
		},
		{
			"buffer":0,
			"byteLength":785856,
			"byteOffset":44640,
			"target":34962
		},
		{
			"buffer":0,
			"byteLength":785856,
			"byteOffset":830496,
			"target":34962
		},
		{
			"buffer":0,
			"byteLength":523904,
			"byteOffset":1616352,
			"target":34962
		},
		{
			"buffer":0,
			"byteLength":1047808,
			"byteOffset":2140256,
			"target":34962
		},
		{
			"buffer":0,
			"byteLength":196608,
			"byteOffset":3188064,
			"target":34963
		},
		{
			"buffer":0,
			"byteLength":288,
			"byteOffset":3384672,
			"target":34962
		},
		{
			"buffer":0,
			"byteLength":288,
			"byteOffset":3384960,
			"target":34962
		},
		{
			"buffer":0,
			"byteLength":192,
			"byteOffset":3385248,
			"target":34962
		},
		{
			"buffer":0,
			"byteLength":384,
			"byteOffset":3385440,
			"target":34962
		},
		{
			"buffer":0,
			"byteLength":72,
			"byteOffset":3385824,
			"target":34963
		},
		{
			"buffer":0,
			"byteLength":288,
			"byteOffset":3385896,
			"target":34962
		},
		{
			"buffer":0,
			"byteLength":288,
			"byteOffset":3386184,
			"target":34962
		},
		{
			"buffer":0,
			"byteLength":192,
			"byteOffset":3386472,
			"target":34962
		},
		{
			"buffer":0,
			"byteLength":384,
			"byteOffset":3386664,
			"target":34962
		}
	],
	"buffers":[
		{
			"byteLength":3387048,
			"uri":"scene.bin"
		}
	]
}
