{
	"asset":{
		"generator":"Khronos glTF Blender I/O v4.3.47",
		"version":"2.0"
	},
	"scene":0,
	"scenes":[
		{
			"name":"Scene",
			"nodes":[
				0,
				1,
				2,
				3,
				4,
				5
			]
		}
	],
	"nodes":[
		{
			"mesh":0,
			"name":"Cloth",
			"scale":[
				14.607708930969238,
				14.607708930969238,
				14.607708930969238
			],
			"translation":[
				0,
				11.796097755432129,
				0
			]
		},
		{
			"mesh":1,
			"name":"Roundcube_Material.001_0",
			"rotation":[
				-0.7071069478988647,
				0,
				0,
				0.7071065902709961
			],
			"scale":[
				4.744067668914795,
				8.99813175201416,
				0.4702166020870209
			],
			"translation":[
				0.04063625633716583,
				3.688765048980713,
				0.04928436875343323
			]
		},
		{
			"mesh":2,
			"name":"Roundcube_Material.002_0",
			"rotation":[
				-0.7071069478988647,
				0,
				0,
				0.7071065902709961
			],
			"scale":[
				4.744067668914795,
				8.99813175201416,
				0.4702166020870209
			],
			"translation":[
				0.04063625633716583,
				3.688765048980713,
				0.04928436875343323
			]
		},
		{
			"mesh":3,
			"name":"Roundcube_Material.003_0",
			"rotation":[
				-0.7071069478988647,
				0,
				0,
				0.7071065902709961
			],
			"scale":[
				4.744067668914795,
				8.99813175201416,
				0.4702166020870209
			],
			"translation":[
				0.04063625633716583,
				3.688765048980713,
				0.04928436875343323
			]
		},
		{
			"mesh":4,
			"name":"Roundcube_Material.004_0",
			"rotation":[
				-0.7071069478988647,
				0,
				0,
				0.7071065902709961
			],
			"scale":[
				4.744067668914795,
				8.99813175201416,
				0.4702166020870209
			],
			"translation":[
				0.04063625633716583,
				3.688765048980713,
				0.04928436875343323
			]
		},
		{
			"mesh":5,
			"name":"Roundcube_Material.005_0",
			"rotation":[
				-0.7071069478988647,
				0,
				0,
				0.7071065902709961
			],
			"scale":[
				4.744067668914795,
				8.99813175201416,
				0.4702166020870209
			],
			"translation":[
				0.04063625633716583,
				3.688765048980713,
				0.04928436875343323
			]
		}
	],
	"materials":[
		{
			"doubleSided":true,
			"name":"Material.001",
			"pbrMetallicRoughness":{
				"baseColorTexture":{
					"index":0
				},
				"metallicFactor":0,
				"roughnessFactor":0.980452299118042
			}
		},
		{
			"doubleSided":true,
			"name":"Material.002",
			"pbrMetallicRoughness":{
				"baseColorTexture":{
					"index":1
				},
				"metallicFactor":0,
				"roughnessFactor":0.8211145401000977
			}
		},
		{
			"doubleSided":true,
			"name":"Material.003",
			"pbrMetallicRoughness":{
				"baseColorTexture":{
					"index":2
				},
				"metallicFactor":0,
				"roughnessFactor":0.9826756119728088
			}
		},
		{
			"doubleSided":true,
			"name":"Material.004",
			"pbrMetallicRoughness":{
				"baseColorTexture":{
					"index":3
				},
				"metallicFactor":0,
				"roughnessFactor":0.9158668518066406
			}
		},
		{
			"doubleSided":true,
			"name":"Material.005",
			"pbrMetallicRoughness":{
				"baseColorTexture":{
					"index":4
				},
				"metallicFactor":0,
				"roughnessFactor":0.8909235000610352
			}
		}
	],
	"meshes":[
		{
			"name":"Plane.001",
			"primitives":[
				{
					"attributes":{
						"POSITION":0,
						"NORMAL":1,
						"TEXCOORD_0":2,
						"TANGENT":3
					},
					"indices":4
				},
				{
					"attributes":{
						"POSITION":5
					},
					"indices":6,
					"mode":1
				}
			]
		},
		{
			"name":"Roundcube_Material.001_0",
			"primitives":[
				{
					"attributes":{
						"POSITION":7,
						"NORMAL":8,
						"TEXCOORD_0":9,
						"TANGENT":10
					},
					"indices":11,
					"material":0
				}
			]
		},
		{
			"name":"Roundcube_Material.002_0",
			"primitives":[
				{
					"attributes":{
						"POSITION":12,
						"NORMAL":13,
						"TEXCOORD_0":14,
						"TANGENT":15
					},
					"indices":16,
					"material":1
				}
			]
		},
		{
			"name":"Roundcube_Material.003_0",
			"primitives":[
				{
					"attributes":{
						"POSITION":17,
						"NORMAL":18,
						"TEXCOORD_0":19,
						"TANGENT":20
					},
					"indices":21,
					"material":2
				}
			]
		},
		{
			"name":"Roundcube_Material.004_0",
			"primitives":[
				{
					"attributes":{
						"POSITION":22,
						"NORMAL":23,
						"TEXCOORD_0":24,
						"TANGENT":25
					},
					"indices":26,
					"material":3
				}
			]
		},
		{
			"name":"Roundcube_Material.005_0",
			"primitives":[
				{
					"attributes":{
						"POSITION":27,
						"NORMAL":28,
						"TEXCOORD_0":29,
						"TANGENT":30
					},
					"indices":31,
					"material":4
				}
			]
		}
	],
	"textures":[
		{
			"sampler":0,
			"source":0
		},
		{
			"sampler":0,
			"source":0
		},
		{
			"sampler":0,
			"source":0
		},
		{
			"sampler":0,
			"source":0
		},
		{
			"sampler":0,
			"source":0
		}
	],
	"images":[
		{
			"mimeType":"image/png",
			"name":"Material.003_baseColor",
			"uri":"Material_003_baseColor.png"
		}
	],
	"accessors":[
		{
			"bufferView":0,
			"componentType":5126,
			"count":1458035,
			"max":[
				0.48908352851867676,
				-0.2694041132926941,
				0.8519047498703003
			],
			"min":[
				-0.44434183835983276,
				-0.8104771375656128,
				-0.8669477105140686
			],
			"type":"VEC3"
		},
		{
			"bufferView":1,
			"componentType":5126,
			"count":1458035,
			"type":"VEC3"
		},
		{
			"bufferView":2,
			"componentType":5126,
			"count":1458035,
			"type":"VEC2"
		},
		{
			"bufferView":3,
			"componentType":5126,
			"count":1458035,
			"type":"VEC4"
		},
		{
			"bufferView":4,
			"componentType":5125,
			"count":2247840,
			"type":"SCALAR"
		},
		{
			"bufferView":5,
			"componentType":5126,
			"count":18,
			"max":[
				-0.3189994692802429,
				-0.8012257814407349,
				0.8105196952819824
			],
			"min":[
				-0.3297506868839264,
				-0.8303006291389465,
				0.7866345047950745
			],
			"type":"VEC3"
		},
		{
			"bufferView":6,
			"componentType":5123,
			"count":32,
			"type":"SCALAR"
		},
		{
			"bufferView":7,
			"componentType":5126,
			"count":16299,
			"max":[
				1.0549722909927368,
				1.1069198846817017,
				8.625076293945312
			],
			"min":[
				-1.0503056049346924,
				-1.094148874282837,
				-7.699716567993164
			],
			"type":"VEC3"
		},
		{
			"bufferView":8,
			"componentType":5126,
			"count":16299,
			"type":"VEC3"
		},
		{
			"bufferView":9,
			"componentType":5126,
			"count":16299,
			"type":"VEC2"
		},
		{
			"bufferView":10,
			"componentType":5126,
			"count":16299,
			"type":"VEC4"
		},
		{
			"bufferView":11,
			"componentType":5123,
			"count":43932,
			"type":"SCALAR"
		},
		{
			"bufferView":12,
			"componentType":5126,
			"count":116,
			"max":[
				0.9999998807907104,
				0.999949038028717,
				0.8806244134902954
			],
			"min":[
				-0.9999998807907104,
				0.6713941097259521,
				-1.1193755865097046
			],
			"type":"VEC3"
		},
		{
			"bufferView":13,
			"componentType":5126,
			"count":116,
			"type":"VEC3"
		},
		{
			"bufferView":14,
			"componentType":5126,
			"count":116,
			"type":"VEC2"
		},
		{
			"bufferView":15,
			"componentType":5126,
			"count":116,
			"type":"VEC4"
		},
		{
			"bufferView":16,
			"componentType":5123,
			"count":510,
			"type":"SCALAR"
		},
		{
			"bufferView":17,
			"componentType":5126,
			"count":276,
			"max":[
				1.0250400304794312,
				0.5835375785827637,
				1.1207853555679321
			],
			"min":[
				-1.0250400304794312,
				-0.9965067505836487,
				-1.3595365285873413
			],
			"type":"VEC3"
		},
		{
			"bufferView":18,
			"componentType":5126,
			"count":276,
			"type":"VEC3"
		},
		{
			"bufferView":19,
			"componentType":5126,
			"count":276,
			"type":"VEC2"
		},
		{
			"bufferView":20,
			"componentType":5126,
			"count":276,
			"type":"VEC4"
		},
		{
			"bufferView":21,
			"componentType":5123,
			"count":630,
			"type":"SCALAR"
		},
		{
			"bufferView":22,
			"componentType":5126,
			"count":163,
			"max":[
				1.036737322807312,
				0.6713941693305969,
				1.3337029218673706
			],
			"min":[
				-1.036737322807312,
				0.5835375189781189,
				-1.401983618736267
			],
			"type":"VEC3"
		},
		{
			"bufferView":23,
			"componentType":5126,
			"count":163,
			"type":"VEC3"
		},
		{
			"bufferView":24,
			"componentType":5126,
			"count":163,
			"type":"VEC2"
		},
		{
			"bufferView":25,
			"componentType":5126,
			"count":163,
			"type":"VEC4"
		},
		{
			"bufferView":26,
			"componentType":5123,
			"count":360,
			"type":"SCALAR"
		},
		{
			"bufferView":27,
			"componentType":5126,
			"count":9607,
			"max":[
				0.44212770462036133,
				0.9866275787353516,
				2.4125237464904785
			],
			"min":[
				-0.44212770462036133,
				0.7301183938980103,
				-0.7325193881988525
			],
			"type":"VEC3"
		},
		{
			"bufferView":28,
			"componentType":5126,
			"count":9607,
			"type":"VEC3"
		},
		{
			"bufferView":29,
			"componentType":5126,
			"count":9607,
			"type":"VEC2"
		},
		{
			"bufferView":30,
			"componentType":5126,
			"count":9607,
			"type":"VEC4"
		},
		{
			"bufferView":31,
			"componentType":5123,
			"count":14388,
			"type":"SCALAR"
		}
	],
	"bufferViews":[
		{
			"buffer":0,
			"byteLength":17496420,
			"byteOffset":0,
			"target":34962
		},
		{
			"buffer":0,
			"byteLength":17496420,
			"byteOffset":17496420,
			"target":34962
		},
		{
			"buffer":0,
			"byteLength":11664280,
			"byteOffset":34992840,
			"target":34962
		},
		{
			"buffer":0,
			"byteLength":23328560,
			"byteOffset":46657120,
			"target":34962
		},
		{
			"buffer":0,
			"byteLength":8991360,
			"byteOffset":69985680,
			"target":34963
		},
		{
			"buffer":0,
			"byteLength":216,
			"byteOffset":78977040,
			"target":34962
		},
		{
			"buffer":0,
			"byteLength":64,
			"byteOffset":78977256,
			"target":34963
		},
		{
			"buffer":0,
			"byteLength":195588,
			"byteOffset":78977320,
			"target":34962
		},
		{
			"buffer":0,
			"byteLength":195588,
			"byteOffset":79172908,
			"target":34962
		},
		{
			"buffer":0,
			"byteLength":130392,
			"byteOffset":79368496,
			"target":34962
		},
		{
			"buffer":0,
			"byteLength":260784,
			"byteOffset":79498888,
			"target":34962
		},
		{
			"buffer":0,
			"byteLength":87864,
			"byteOffset":79759672,
			"target":34963
		},
		{
			"buffer":0,
			"byteLength":1392,
			"byteOffset":79847536,
			"target":34962
		},
		{
			"buffer":0,
			"byteLength":1392,
			"byteOffset":79848928,
			"target":34962
		},
		{
			"buffer":0,
			"byteLength":928,
			"byteOffset":79850320,
			"target":34962
		},
		{
			"buffer":0,
			"byteLength":1856,
			"byteOffset":79851248,
			"target":34962
		},
		{
			"buffer":0,
			"byteLength":1020,
			"byteOffset":79853104,
			"target":34963
		},
		{
			"buffer":0,
			"byteLength":3312,
			"byteOffset":79854124,
			"target":34962
		},
		{
			"buffer":0,
			"byteLength":3312,
			"byteOffset":79857436,
			"target":34962
		},
		{
			"buffer":0,
			"byteLength":2208,
			"byteOffset":79860748,
			"target":34962
		},
		{
			"buffer":0,
			"byteLength":4416,
			"byteOffset":79862956,
			"target":34962
		},
		{
			"buffer":0,
			"byteLength":1260,
			"byteOffset":79867372,
			"target":34963
		},
		{
			"buffer":0,
			"byteLength":1956,
			"byteOffset":79868632,
			"target":34962
		},
		{
			"buffer":0,
			"byteLength":1956,
			"byteOffset":79870588,
			"target":34962
		},
		{
			"buffer":0,
			"byteLength":1304,
			"byteOffset":79872544,
			"target":34962
		},
		{
			"buffer":0,
			"byteLength":2608,
			"byteOffset":79873848,
			"target":34962
		},
		{
			"buffer":0,
			"byteLength":720,
			"byteOffset":79876456,
			"target":34963
		},
		{
			"buffer":0,
			"byteLength":115284,
			"byteOffset":79877176,
			"target":34962
		},
		{
			"buffer":0,
			"byteLength":115284,
			"byteOffset":79992460,
			"target":34962
		},
		{
			"buffer":0,
			"byteLength":76856,
			"byteOffset":80107744,
			"target":34962
		},
		{
			"buffer":0,
			"byteLength":153712,
			"byteOffset":80184600,
			"target":34962
		},
		{
			"buffer":0,
			"byteLength":28776,
			"byteOffset":80338312,
			"target":34963
		}
	],
	"samplers":[
		{
			"magFilter":9729,
			"minFilter":9987
		}
	],
	"buffers":[
		{
			"byteLength":80367088,
			"uri":"scene.bin"
		}
	]
}
