{
	"asset":{
		"generator":"Khronos glTF Blender I/O v4.3.47",
		"version":"2.0"
	},
	"scene":0,
	"scenes":[
		{
			"name":"Scene",
			"nodes":[
				5
			]
		}
	],
	"nodes":[
		{
			"mesh":0,
			"name":"Object_23"
		},
		{
			"mesh":1,
			"name":"Object_24"
		},
		{
			"children":[
				0,
				1
			],
			"name":"WarningSign_7",
			"rotation":[
				0,
				0,
				0.1182161197066307,
				0.9929879307746887
			],
			"scale":[
				0.10650860518217087,
				0.5856087803840637,
				1.3573167324066162
			]
		},
		{
			"children":[
				2
			],
			"name":"GLTF_SceneRootNode",
			"rotation":[
				0.70710688829422,
				0,
				0,
				0.7071066498756409
			]
		},
		{
			"children":[
				3
			],
			"name":"root"
		},
		{
			"children":[
				4
			],
			"name":"Sketchfab_model",
			"rotation":[
				-0.70710688829422,
				0,
				0,
				0.7071066498756409
			]
		}
	],
	"materials":[
		{
			"doubleSided":true,
			"name":"WarningSignWhite",
			"pbrMetallicRoughness":{
				"baseColorFactor":[
					0.800000011920929,
					0.800000011920929,
					0.800000011920929,
					1
				],
				"metallicFactor":0,
				"roughnessFactor":0.5
			}
		},
		{
			"doubleSided":true,
			"name":"WarningSignRed",
			"pbrMetallicRoughness":{
				"baseColorFactor":[
					0.7379109859466553,
					0.04518619924783707,
					0.02315340004861355,
					1
				],
				"metallicFactor":0,
				"roughnessFactor":0.5
			}
		}
	],
	"meshes":[
		{
			"name":"Object_12",
			"primitives":[
				{
					"attributes":{
						"POSITION":0,
						"NORMAL":1,
						"TEXCOORD_0":2,
						"TANGENT":3
					},
					"indices":4,
					"material":0
				}
			]
		},
		{
			"name":"Object_13",
			"primitives":[
				{
					"attributes":{
						"POSITION":5,
						"NORMAL":6,
						"TEXCOORD_0":7,
						"TANGENT":8
					},
					"indices":9,
					"material":1
				}
			]
		}
	],
	"accessors":[
		{
			"bufferView":0,
			"componentType":5126,
			"count":441,
			"max":[
				4.904125690460205,
				4.307039737701416,
				1
			],
			"min":[
				-8.293643951416016,
				-0.14476776123046875,
				-1
			],
			"type":"VEC3"
		},
		{
			"bufferView":1,
			"componentType":5126,
			"count":441,
			"type":"VEC3"
		},
		{
			"bufferView":2,
			"componentType":5126,
			"count":441,
			"type":"VEC2"
		},
		{
			"bufferView":3,
			"componentType":5126,
			"count":441,
			"type":"VEC4"
		},
		{
			"bufferView":4,
			"componentType":5123,
			"count":729,
			"type":"SCALAR"
		},
		{
			"bufferView":5,
			"componentType":5126,
			"count":40,
			"max":[
				4.904125690460205,
				4.307039737701416,
				1
			],
			"min":[
				4.86550760269165,
				2.307039737701416,
				-1
			],
			"type":"VEC3"
		},
		{
			"bufferView":6,
			"componentType":5126,
			"count":40,
			"type":"VEC3"
		},
		{
			"bufferView":7,
			"componentType":5126,
			"count":40,
			"type":"VEC2"
		},
		{
			"bufferView":8,
			"componentType":5126,
			"count":40,
			"type":"VEC4"
		},
		{
			"bufferView":9,
			"componentType":5123,
			"count":69,
			"type":"SCALAR"
		}
	],
	"bufferViews":[
		{
			"buffer":0,
			"byteLength":5292,
			"byteOffset":0,
			"target":34962
		},
		{
			"buffer":0,
			"byteLength":5292,
			"byteOffset":5292,
			"target":34962
		},
		{
			"buffer":0,
			"byteLength":3528,
			"byteOffset":10584,
			"target":34962
		},
		{
			"buffer":0,
			"byteLength":7056,
			"byteOffset":14112,
			"target":34962
		},
		{
			"buffer":0,
			"byteLength":1458,
			"byteOffset":21168,
			"target":34963
		},
		{
			"buffer":0,
			"byteLength":480,
			"byteOffset":22628,
			"target":34962
		},
		{
			"buffer":0,
			"byteLength":480,
			"byteOffset":23108,
			"target":34962
		},
		{
			"buffer":0,
			"byteLength":320,
			"byteOffset":23588,
			"target":34962
		},
		{
			"buffer":0,
			"byteLength":640,
			"byteOffset":23908,
			"target":34962
		},
		{
			"buffer":0,
			"byteLength":138,
			"byteOffset":24548,
			"target":34963
		}
	],
	"buffers":[
		{
			"byteLength":24688,
			"uri":"scene.bin"
		}
	]
}
