{
	"asset":{
		"generator":"Khronos glTF Blender I/O v4.3.47",
		"version":"2.0"
	},
	"scene":0,
	"scenes":[
		{
			"name":"Scene",
			"nodes":[
				0,
				1,
				5
			]
		}
	],
	"nodes":[
		{
			"mesh":0,
			"name":"Text",
			"rotation":[
				0.4948751628398895,
				0.505072832107544,
				-0.49487513303756714,
				0.505072832107544
			],
			"scale":[
				0.21036390960216522,
				0.2103639394044876,
				0.2103639394044876
			],
			"translation":[
				0.4274478554725647,
				5.022087574005127,
				6.277890205383301
			]
		},
		{
			"name":"BarriersWhite_1",
			"translation":[
				0,
				0,
				5.000000953674316
			]
		},
		{
			"mesh":1,
			"name":"Object_26"
		},
		{
			"mesh":2,
			"name":"Object_27"
		},
		{
			"mesh":3,
			"name":"Object_28"
		},
		{
			"children":[
				2,
				3,
				4
			],
			"name":"Sign.001_8",
			"scale":[
				0.13983064889907837,
				2.5844571590423584,
				0.13983067870140076
			],
			"translation":[
				0,
				0,
				6.290965557098389
			]
		}
	],
	"materials":[
		{
			"doubleSided":true,
			"name":"Material.001",
			"pbrMetallicRoughness":{
				"roughnessFactor":0.4881889820098877
			}
		},
		{
			"doubleSided":true,
			"name":"SignPillar",
			"pbrMetallicRoughness":{
				"baseColorFactor":[
					0.5332769751548767,
					0.4178850054740906,
					0.37123799324035645,
					1
				],
				"metallicFactor":0,
				"roughnessFactor":0.5
			}
		},
		{
			"doubleSided":true,
			"name":"SingOrange",
			"pbrMetallicRoughness":{
				"baseColorFactor":[
					0.800000011920929,
					0.1150600016117096,
					0,
					1
				],
				"metallicFactor":0,
				"roughnessFactor":0.5
			}
		},
		{
			"doubleSided":true,
			"name":"SignBlack",
			"pbrMetallicRoughness":{
				"baseColorFactor":[
					0.0159962996840477,
					0.0159962996840477,
					0.0159962996840477,
					1
				],
				"metallicFactor":0,
				"roughnessFactor":0.5
			}
		}
	],
	"meshes":[
		{
			"name":"Text",
			"primitives":[
				{
					"attributes":{
						"POSITION":0,
						"NORMAL":1,
						"TEXCOORD_0":2,
						"TANGENT":3
					},
					"indices":4,
					"material":0
				}
			]
		},
		{
			"name":"Object_14",
			"primitives":[
				{
					"attributes":{
						"POSITION":5,
						"NORMAL":6,
						"TEXCOORD_0":7,
						"TANGENT":8
					},
					"indices":9,
					"material":1
				}
			]
		},
		{
			"name":"Object_15",
			"primitives":[
				{
					"attributes":{
						"POSITION":10,
						"NORMAL":11,
						"TEXCOORD_0":12,
						"TANGENT":13
					},
					"indices":14,
					"material":2
				}
			]
		},
		{
			"name":"Object_16",
			"primitives":[
				{
					"attributes":{
						"POSITION":15,
						"NORMAL":16,
						"TEXCOORD_0":17,
						"TANGENT":18
					},
					"indices":19,
					"material":3
				}
			]
		}
	],
	"accessors":[
		{
			"bufferView":0,
			"componentType":5126,
			"count":4530,
			"max":[
				3.8510003089904785,
				0.17000000178813934,
				0.8090000152587891
			],
			"min":[
				-3.878000259399414,
				-0.17000000178813934,
				-0.8910000324249268
			],
			"type":"VEC3"
		},
		{
			"bufferView":1,
			"componentType":5126,
			"count":4530,
			"type":"VEC3"
		},
		{
			"bufferView":2,
			"componentType":5126,
			"count":4530,
			"type":"VEC2"
		},
		{
			"bufferView":3,
			"componentType":5126,
			"count":4530,
			"type":"VEC4"
		},
		{
			"bufferView":4,
			"componentType":5123,
			"count":13200,
			"type":"SCALAR"
		},
		{
			"bufferView":5,
			"componentType":5126,
			"count":271,
			"max":[
				2.0034470558166504,
				1.9977936744689941,
				0.7313410043716431
			],
			"min":[
				-0.7313295602798462,
				-0.0022063255310058594,
				-0.7313181161880493
			],
			"type":"VEC3"
		},
		{
			"bufferView":6,
			"componentType":5126,
			"count":271,
			"type":"VEC3"
		},
		{
			"bufferView":7,
			"componentType":5126,
			"count":271,
			"type":"VEC2"
		},
		{
			"bufferView":8,
			"componentType":5126,
			"count":271,
			"type":"VEC4"
		},
		{
			"bufferView":9,
			"componentType":5123,
			"count":408,
			"type":"SCALAR"
		},
		{
			"bufferView":10,
			"componentType":5126,
			"count":174,
			"max":[
				3.0046582221984863,
				2.422865390777588,
				9.473687171936035
			],
			"min":[
				2.0034470558166504,
				1.3982000350952148,
				-9.464959144592285
			],
			"type":"VEC3"
		},
		{
			"bufferView":11,
			"componentType":5126,
			"count":174,
			"type":"VEC3"
		},
		{
			"bufferView":12,
			"componentType":5126,
			"count":174,
			"type":"VEC2"
		},
		{
			"bufferView":13,
			"componentType":5126,
			"count":174,
			"type":"VEC4"
		},
		{
			"bufferView":14,
			"componentType":5123,
			"count":222,
			"type":"SCALAR"
		},
		{
			"bufferView":15,
			"componentType":5126,
			"count":16,
			"max":[
				3.0046582221984863,
				2.3624496459960938,
				8.357036590576172
			],
			"min":[
				3.0046582221984863,
				1.458615779876709,
				-8.348308563232422
			],
			"type":"VEC3"
		},
		{
			"bufferView":16,
			"componentType":5126,
			"count":16,
			"type":"VEC3"
		},
		{
			"bufferView":17,
			"componentType":5126,
			"count":16,
			"type":"VEC2"
		},
		{
			"bufferView":18,
			"componentType":5126,
			"count":16,
			"type":"VEC4"
		},
		{
			"bufferView":19,
			"componentType":5123,
			"count":24,
			"type":"SCALAR"
		}
	],
	"bufferViews":[
		{
			"buffer":0,
			"byteLength":54360,
			"byteOffset":0,
			"target":34962
		},
		{
			"buffer":0,
			"byteLength":54360,
			"byteOffset":54360,
			"target":34962
		},
		{
			"buffer":0,
			"byteLength":36240,
			"byteOffset":108720,
			"target":34962
		},
		{
			"buffer":0,
			"byteLength":72480,
			"byteOffset":144960,
			"target":34962
		},
		{
			"buffer":0,
			"byteLength":26400,
			"byteOffset":217440,
			"target":34963
		},
		{
			"buffer":0,
			"byteLength":3252,
			"byteOffset":243840,
			"target":34962
		},
		{
			"buffer":0,
			"byteLength":3252,
			"byteOffset":247092,
			"target":34962
		},
		{
			"buffer":0,
			"byteLength":2168,
			"byteOffset":250344,
			"target":34962
		},
		{
			"buffer":0,
			"byteLength":4336,
			"byteOffset":252512,
			"target":34962
		},
		{
			"buffer":0,
			"byteLength":816,
			"byteOffset":256848,
			"target":34963
		},
		{
			"buffer":0,
			"byteLength":2088,
			"byteOffset":257664,
			"target":34962
		},
		{
			"buffer":0,
			"byteLength":2088,
			"byteOffset":259752,
			"target":34962
		},
		{
			"buffer":0,
			"byteLength":1392,
			"byteOffset":261840,
			"target":34962
		},
		{
			"buffer":0,
			"byteLength":2784,
			"byteOffset":263232,
			"target":34962
		},
		{
			"buffer":0,
			"byteLength":444,
			"byteOffset":266016,
			"target":34963
		},
		{
			"buffer":0,
			"byteLength":192,
			"byteOffset":266460,
			"target":34962
		},
		{
			"buffer":0,
			"byteLength":192,
			"byteOffset":266652,
			"target":34962
		},
		{
			"buffer":0,
			"byteLength":128,
			"byteOffset":266844,
			"target":34962
		},
		{
			"buffer":0,
			"byteLength":256,
			"byteOffset":266972,
			"target":34962
		},
		{
			"buffer":0,
			"byteLength":48,
			"byteOffset":267228,
			"target":34963
		}
	],
	"buffers":[
		{
			"byteLength":267276,
			"uri":"untitled.bin"
		}
	]
}
