{
	"asset":{
		"generator":"Khronos glTF Blender I/O v4.3.47",
		"version":"2.0"
	},
	"scene":0,
	"scenes":[
		{
			"name":"Scene",
			"nodes":[
				25,
				26
			]
		}
	],
	"nodes":[
		{
			"mesh":0,
			"name":"Cube_0"
		},
		{
			"children":[
				0
			],
			"name":"Cube"
		},
		{
			"mesh":1,
			"name":"Cube.001_0"
		},
		{
			"children":[
				2
			],
			"name":"Cube.001",
			"translation":[
				2.3499999046325684,
				0,
				-1.489999771118164
			]
		},
		{
			"mesh":2,
			"name":"Cube.002_0"
		},
		{
			"children":[
				4
			],
			"name":"Cube.002",
			"translation":[
				-2.3499999046325684,
				0,
				-1.489999771118164
			]
		},
		{
			"mesh":3,
			"name":"Cube.003_0"
		},
		{
			"children":[
				6
			],
			"name":"Cube.003",
			"translation":[
				0,
				0.800000011920929,
				-1.049999713897705
			]
		},
		{
			"mesh":4,
			"name":"Cube.004_0"
		},
		{
			"children":[
				8
			],
			"name":"Cube.004",
			"translation":[
				-1.524999976158142,
				-1.25,
				-0.19999973475933075
			]
		},
		{
			"mesh":5,
			"name":"Cube.005_0"
		},
		{
			"children":[
				10
			],
			"name":"Cube.005",
			"translation":[
				1.524999976158142,
				-1.25,
				-0.19999973475933075
			]
		},
		{
			"mesh":6,
			"name":"Cube.006_0"
		},
		{
			"children":[
				12
			],
			"name":"Cube.006",
			"translation":[
				0,
				-1.25,
				-0.19999973475933075
			]
		},
		{
			"mesh":7,
			"name":"Cube.007_0"
		},
		{
			"children":[
				14
			],
			"name":"Cube.007",
			"translation":[
				-1.524999976158142,
				-0.28999999165534973,
				-0.29999974370002747
			]
		},
		{
			"mesh":8,
			"name":"Cube.008_0"
		},
		{
			"children":[
				16
			],
			"name":"Cube.008",
			"translation":[
				0,
				-0.28999999165534973,
				-0.29999974370002747
			]
		},
		{
			"mesh":9,
			"name":"Cube.009_0"
		},
		{
			"children":[
				18
			],
			"name":"Cube.009",
			"translation":[
				1.524999976158142,
				-0.28999999165534973,
				-0.29999974370002747
			]
		},
		{
			"mesh":10,
			"name":"Cube.010_0"
		},
		{
			"children":[
				20
			],
			"name":"Cube.010",
			"translation":[
				-0.762499988079071,
				-0.21250000596046448,
				-0.1999998390674591
			]
		},
		{
			"mesh":11,
			"name":"Cube.011_0"
		},
		{
			"children":[
				22
			],
			"name":"Cube.011",
			"translation":[
				0.762499988079071,
				-0.21250000596046448,
				-0.1999998390674591
			]
		},
		{
			"children":[
				1,
				3,
				5,
				7,
				9,
				11,
				13,
				15,
				17,
				19,
				21,
				23
			],
			"name":"Root"
		},
		{
			"children":[
				24
			],
			"name":"Sketchfab_model",
			"rotation":[
				-0.70710688829422,
				0,
				0,
				0.7071066498756409
			],
			"translation":[
				0,
				2.9558746814727783,
				0
			]
		},
		{
			"mesh":12,
			"name":"Plane",
			"scale":[
				4.857747554779053,
				2.692643165588379,
				2.692643165588379
			],
			"translation":[
				0,
				5.893306732177734,
				0
			]
		}
	],
	"materials":[
		{
			"doubleSided":true,
			"name":"Wood",
			"pbrMetallicRoughness":{
				"baseColorTexture":{
					"index":0
				},
				"metallicFactor":0,
				"roughnessFactor":0.6000000238418579
			}
		}
	],
	"meshes":[
		{
			"name":"Cube_0",
			"primitives":[
				{
					"attributes":{
						"POSITION":0,
						"NORMAL":1,
						"TEXCOORD_0":2,
						"TANGENT":3
					},
					"indices":4,
					"material":0
				}
			]
		},
		{
			"name":"Cube.001_0",
			"primitives":[
				{
					"attributes":{
						"POSITION":5,
						"NORMAL":6,
						"TEXCOORD_0":7,
						"TANGENT":8
					},
					"indices":4,
					"material":0
				}
			]
		},
		{
			"name":"Cube.002_0",
			"primitives":[
				{
					"attributes":{
						"POSITION":9,
						"NORMAL":10,
						"TEXCOORD_0":11,
						"TANGENT":12
					},
					"indices":4,
					"material":0
				}
			]
		},
		{
			"name":"Cube.003_0",
			"primitives":[
				{
					"attributes":{
						"POSITION":13,
						"NORMAL":14,
						"TEXCOORD_0":15,
						"TANGENT":16
					},
					"indices":4,
					"material":0
				}
			]
		},
		{
			"name":"Cube.004_0",
			"primitives":[
				{
					"attributes":{
						"POSITION":17,
						"NORMAL":18,
						"TEXCOORD_0":19,
						"TANGENT":20
					},
					"indices":4,
					"material":0
				}
			]
		},
		{
			"name":"Cube.005_0",
			"primitives":[
				{
					"attributes":{
						"POSITION":21,
						"NORMAL":22,
						"TEXCOORD_0":23,
						"TANGENT":24
					},
					"indices":4,
					"material":0
				}
			]
		},
		{
			"name":"Cube.006_0",
			"primitives":[
				{
					"attributes":{
						"POSITION":25,
						"NORMAL":26,
						"TEXCOORD_0":27,
						"TANGENT":28
					},
					"indices":4,
					"material":0
				}
			]
		},
		{
			"name":"Cube.007_0",
			"primitives":[
				{
					"attributes":{
						"POSITION":29,
						"NORMAL":30,
						"TEXCOORD_0":31,
						"TANGENT":32
					},
					"indices":4,
					"material":0
				}
			]
		},
		{
			"name":"Cube.008_0",
			"primitives":[
				{
					"attributes":{
						"POSITION":33,
						"NORMAL":34,
						"TEXCOORD_0":35,
						"TANGENT":36
					},
					"indices":4,
					"material":0
				}
			]
		},
		{
			"name":"Cube.009_0",
			"primitives":[
				{
					"attributes":{
						"POSITION":37,
						"NORMAL":38,
						"TEXCOORD_0":39,
						"TANGENT":40
					},
					"indices":4,
					"material":0
				}
			]
		},
		{
			"name":"Cube.010_0",
			"primitives":[
				{
					"attributes":{
						"POSITION":41,
						"NORMAL":42,
						"TEXCOORD_0":43,
						"TANGENT":44
					},
					"indices":4,
					"material":0
				}
			]
		},
		{
			"name":"Cube.011_0",
			"primitives":[
				{
					"attributes":{
						"POSITION":45,
						"NORMAL":46,
						"TEXCOORD_0":47,
						"TANGENT":48
					},
					"indices":4,
					"material":0
				}
			]
		},
		{
			"name":"Plane.001",
			"primitives":[
				{
					"attributes":{
						"POSITION":49,
						"NORMAL":50,
						"TEXCOORD_0":51,
						"TANGENT":52
					},
					"indices":53
				}
			]
		}
	],
	"textures":[
		{
			"sampler":0,
			"source":0
		}
	],
	"images":[
		{
			"mimeType":"image/png",
			"name":"Wood_baseColor",
			"uri":"Wood_baseColor.png"
		}
	],
	"accessors":[
		{
			"bufferView":0,
			"componentType":5126,
			"count":24,
			"max":[
				2.4000000953674316,
				1.2999999523162842,
				0.05000000074505806
			],
			"min":[
				-2.4000000953674316,
				-1.2999999523162842,
				-0.05000000074505806
			],
			"type":"VEC3"
		},
		{
			"bufferView":1,
			"componentType":5126,
			"count":24,
			"type":"VEC3"
		},
		{
			"bufferView":2,
			"componentType":5126,
			"count":24,
			"type":"VEC2"
		},
		{
			"bufferView":3,
			"componentType":5126,
			"count":24,
			"type":"VEC4"
		},
		{
			"bufferView":4,
			"componentType":5123,
			"count":36,
			"type":"SCALAR"
		},
		{
			"bufferView":5,
			"componentType":5126,
			"count":24,
			"max":[
				0.05000000074505806,
				1.2999999523162842,
				1.440000057220459
			],
			"min":[
				-0.05000000074505806,
				-1.2999999523162842,
				-1.440000057220459
			],
			"type":"VEC3"
		},
		{
			"bufferView":6,
			"componentType":5126,
			"count":24,
			"type":"VEC3"
		},
		{
			"bufferView":7,
			"componentType":5126,
			"count":24,
			"type":"VEC2"
		},
		{
			"bufferView":8,
			"componentType":5126,
			"count":24,
			"type":"VEC4"
		},
		{
			"bufferView":9,
			"componentType":5126,
			"count":24,
			"max":[
				0.05000000074505806,
				1.2999999523162842,
				1.440000057220459
			],
			"min":[
				-0.05000000074505806,
				-1.2999999523162842,
				-1.440000057220459
			],
			"type":"VEC3"
		},
		{
			"bufferView":10,
			"componentType":5126,
			"count":24,
			"type":"VEC3"
		},
		{
			"bufferView":11,
			"componentType":5126,
			"count":24,
			"type":"VEC2"
		},
		{
			"bufferView":12,
			"componentType":5126,
			"count":24,
			"type":"VEC4"
		},
		{
			"bufferView":13,
			"componentType":5126,
			"count":24,
			"max":[
				2.299999952316284,
				0.07500000298023224,
				1
			],
			"min":[
				-2.299999952316284,
				-0.07500000298023224,
				-1
			],
			"type":"VEC3"
		},
		{
			"bufferView":14,
			"componentType":5126,
			"count":24,
			"type":"VEC3"
		},
		{
			"bufferView":15,
			"componentType":5126,
			"count":24,
			"type":"VEC2"
		},
		{
			"bufferView":16,
			"componentType":5126,
			"count":24,
			"type":"VEC4"
		},
		{
			"bufferView":17,
			"componentType":5126,
			"count":24,
			"max":[
				0.75,
				0.05000000074505806,
				0.125
			],
			"min":[
				-0.75,
				-0.05000000074505806,
				-0.125
			],
			"type":"VEC3"
		},
		{
			"bufferView":18,
			"componentType":5126,
			"count":24,
			"type":"VEC3"
		},
		{
			"bufferView":19,
			"componentType":5126,
			"count":24,
			"type":"VEC2"
		},
		{
			"bufferView":20,
			"componentType":5126,
			"count":24,
			"type":"VEC4"
		},
		{
			"bufferView":21,
			"componentType":5126,
			"count":24,
			"max":[
				0.75,
				0.05000000074505806,
				0.125
			],
			"min":[
				-0.75,
				-0.05000000074505806,
				-0.125
			],
			"type":"VEC3"
		},
		{
			"bufferView":22,
			"componentType":5126,
			"count":24,
			"type":"VEC3"
		},
		{
			"bufferView":23,
			"componentType":5126,
			"count":24,
			"type":"VEC2"
		},
		{
			"bufferView":24,
			"componentType":5126,
			"count":24,
			"type":"VEC4"
		},
		{
			"bufferView":25,
			"componentType":5126,
			"count":24,
			"max":[
				0.75,
				0.05000000074505806,
				0.125
			],
			"min":[
				-0.75,
				-0.05000000074505806,
				-0.125
			],
			"type":"VEC3"
		},
		{
			"bufferView":26,
			"componentType":5126,
			"count":24,
			"type":"VEC3"
		},
		{
			"bufferView":27,
			"componentType":5126,
			"count":24,
			"type":"VEC2"
		},
		{
			"bufferView":28,
			"componentType":5126,
			"count":24,
			"type":"VEC4"
		},
		{
			"bufferView":29,
			"componentType":5126,
			"count":24,
			"max":[
				0.699999988079071,
				0.9100000262260437,
				0.02500000037252903
			],
			"min":[
				-0.699999988079071,
				-0.9100000262260437,
				-0.02500000037252903
			],
			"type":"VEC3"
		},
		{
			"bufferView":30,
			"componentType":5126,
			"count":24,
			"type":"VEC3"
		},
		{
			"bufferView":31,
			"componentType":5126,
			"count":24,
			"type":"VEC2"
		},
		{
			"bufferView":32,
			"componentType":5126,
			"count":24,
			"type":"VEC4"
		},
		{
			"bufferView":33,
			"componentType":5126,
			"count":24,
			"max":[
				0.699999988079071,
				0.9100000262260437,
				0.02500000037252903
			],
			"min":[
				-0.699999988079071,
				-0.9100000262260437,
				-0.02500000037252903
			],
			"type":"VEC3"
		},
		{
			"bufferView":34,
			"componentType":5126,
			"count":24,
			"type":"VEC3"
		},
		{
			"bufferView":35,
			"componentType":5126,
			"count":24,
			"type":"VEC2"
		},
		{
			"bufferView":36,
			"componentType":5126,
			"count":24,
			"type":"VEC4"
		},
		{
			"bufferView":37,
			"componentType":5126,
			"count":24,
			"max":[
				0.699999988079071,
				0.9100000262260437,
				0.02500000037252903
			],
			"min":[
				-0.699999988079071,
				-0.9100000262260437,
				-0.02500000037252903
			],
			"type":"VEC3"
		},
		{
			"bufferView":38,
			"componentType":5126,
			"count":24,
			"type":"VEC3"
		},
		{
			"bufferView":39,
			"componentType":5126,
			"count":24,
			"type":"VEC2"
		},
		{
			"bufferView":40,
			"componentType":5126,
			"count":24,
			"type":"VEC4"
		},
		{
			"bufferView":41,
			"componentType":5126,
			"count":24,
			"max":[
				0.03750000149011612,
				0.9375,
				0.125
			],
			"min":[
				-0.03750000149011612,
				-0.9375,
				-0.125
			],
			"type":"VEC3"
		},
		{
			"bufferView":42,
			"componentType":5126,
			"count":24,
			"type":"VEC3"
		},
		{
			"bufferView":43,
			"componentType":5126,
			"count":24,
			"type":"VEC2"
		},
		{
			"bufferView":44,
			"componentType":5126,
			"count":24,
			"type":"VEC4"
		},
		{
			"bufferView":45,
			"componentType":5126,
			"count":24,
			"max":[
				0.03750000149011612,
				0.9375,
				0.125
			],
			"min":[
				-0.03750000149011612,
				-0.9375,
				-0.125
			],
			"type":"VEC3"
		},
		{
			"bufferView":46,
			"componentType":5126,
			"count":24,
			"type":"VEC3"
		},
		{
			"bufferView":47,
			"componentType":5126,
			"count":24,
			"type":"VEC2"
		},
		{
			"bufferView":48,
			"componentType":5126,
			"count":24,
			"type":"VEC4"
		},
		{
			"bufferView":49,
			"componentType":5126,
			"count":1997997,
			"max":[
				0.6159419417381287,
				-1.0556377172470093,
				0.7035161256790161
			],
			"min":[
				-0.6198440194129944,
				-2.1004183292388916,
				-0.7330945730209351
			],
			"type":"VEC3"
		},
		{
			"bufferView":50,
			"componentType":5126,
			"count":1997997,
			"type":"VEC3"
		},
		{
			"bufferView":51,
			"componentType":5126,
			"count":1997997,
			"type":"VEC2"
		},
		{
			"bufferView":52,
			"componentType":5126,
			"count":1997997,
			"type":"VEC4"
		},
		{
			"bufferView":53,
			"componentType":5125,
			"count":3158016,
			"type":"SCALAR"
		}
	],
	"bufferViews":[
		{
			"buffer":0,
			"byteLength":288,
			"byteOffset":0,
			"target":34962
		},
		{
			"buffer":0,
			"byteLength":288,
			"byteOffset":288,
			"target":34962
		},
		{
			"buffer":0,
			"byteLength":192,
			"byteOffset":576,
			"target":34962
		},
		{
			"buffer":0,
			"byteLength":384,
			"byteOffset":768,
			"target":34962
		},
		{
			"buffer":0,
			"byteLength":72,
			"byteOffset":1152,
			"target":34963
		},
		{
			"buffer":0,
			"byteLength":288,
			"byteOffset":1224,
			"target":34962
		},
		{
			"buffer":0,
			"byteLength":288,
			"byteOffset":1512,
			"target":34962
		},
		{
			"buffer":0,
			"byteLength":192,
			"byteOffset":1800,
			"target":34962
		},
		{
			"buffer":0,
			"byteLength":384,
			"byteOffset":1992,
			"target":34962
		},
		{
			"buffer":0,
			"byteLength":288,
			"byteOffset":2376,
			"target":34962
		},
		{
			"buffer":0,
			"byteLength":288,
			"byteOffset":2664,
			"target":34962
		},
		{
			"buffer":0,
			"byteLength":192,
			"byteOffset":2952,
			"target":34962
		},
		{
			"buffer":0,
			"byteLength":384,
			"byteOffset":3144,
			"target":34962
		},
		{
			"buffer":0,
			"byteLength":288,
			"byteOffset":3528,
			"target":34962
		},
		{
			"buffer":0,
			"byteLength":288,
			"byteOffset":3816,
			"target":34962
		},
		{
			"buffer":0,
			"byteLength":192,
			"byteOffset":4104,
			"target":34962
		},
		{
			"buffer":0,
			"byteLength":384,
			"byteOffset":4296,
			"target":34962
		},
		{
			"buffer":0,
			"byteLength":288,
			"byteOffset":4680,
			"target":34962
		},
		{
			"buffer":0,
			"byteLength":288,
			"byteOffset":4968,
			"target":34962
		},
		{
			"buffer":0,
			"byteLength":192,
			"byteOffset":5256,
			"target":34962
		},
		{
			"buffer":0,
			"byteLength":384,
			"byteOffset":5448,
			"target":34962
		},
		{
			"buffer":0,
			"byteLength":288,
			"byteOffset":5832,
			"target":34962
		},
		{
			"buffer":0,
			"byteLength":288,
			"byteOffset":6120,
			"target":34962
		},
		{
			"buffer":0,
			"byteLength":192,
			"byteOffset":6408,
			"target":34962
		},
		{
			"buffer":0,
			"byteLength":384,
			"byteOffset":6600,
			"target":34962
		},
		{
			"buffer":0,
			"byteLength":288,
			"byteOffset":6984,
			"target":34962
		},
		{
			"buffer":0,
			"byteLength":288,
			"byteOffset":7272,
			"target":34962
		},
		{
			"buffer":0,
			"byteLength":192,
			"byteOffset":7560,
			"target":34962
		},
		{
			"buffer":0,
			"byteLength":384,
			"byteOffset":7752,
			"target":34962
		},
		{
			"buffer":0,
			"byteLength":288,
			"byteOffset":8136,
			"target":34962
		},
		{
			"buffer":0,
			"byteLength":288,
			"byteOffset":8424,
			"target":34962
		},
		{
			"buffer":0,
			"byteLength":192,
			"byteOffset":8712,
			"target":34962
		},
		{
			"buffer":0,
			"byteLength":384,
			"byteOffset":8904,
			"target":34962
		},
		{
			"buffer":0,
			"byteLength":288,
			"byteOffset":9288,
			"target":34962
		},
		{
			"buffer":0,
			"byteLength":288,
			"byteOffset":9576,
			"target":34962
		},
		{
			"buffer":0,
			"byteLength":192,
			"byteOffset":9864,
			"target":34962
		},
		{
			"buffer":0,
			"byteLength":384,
			"byteOffset":10056,
			"target":34962
		},
		{
			"buffer":0,
			"byteLength":288,
			"byteOffset":10440,
			"target":34962
		},
		{
			"buffer":0,
			"byteLength":288,
			"byteOffset":10728,
			"target":34962
		},
		{
			"buffer":0,
			"byteLength":192,
			"byteOffset":11016,
			"target":34962
		},
		{
			"buffer":0,
			"byteLength":384,
			"byteOffset":11208,
			"target":34962
		},
		{
			"buffer":0,
			"byteLength":288,
			"byteOffset":11592,
			"target":34962
		},
		{
			"buffer":0,
			"byteLength":288,
			"byteOffset":11880,
			"target":34962
		},
		{
			"buffer":0,
			"byteLength":192,
			"byteOffset":12168,
			"target":34962
		},
		{
			"buffer":0,
			"byteLength":384,
			"byteOffset":12360,
			"target":34962
		},
		{
			"buffer":0,
			"byteLength":288,
			"byteOffset":12744,
			"target":34962
		},
		{
			"buffer":0,
			"byteLength":288,
			"byteOffset":13032,
			"target":34962
		},
		{
			"buffer":0,
			"byteLength":192,
			"byteOffset":13320,
			"target":34962
		},
		{
			"buffer":0,
			"byteLength":384,
			"byteOffset":13512,
			"target":34962
		},
		{
			"buffer":0,
			"byteLength":23975964,
			"byteOffset":13896,
			"target":34962
		},
		{
			"buffer":0,
			"byteLength":23975964,
			"byteOffset":23989860,
			"target":34962
		},
		{
			"buffer":0,
			"byteLength":15983976,
			"byteOffset":47965824,
			"target":34962
		},
		{
			"buffer":0,
			"byteLength":31967952,
			"byteOffset":63949800,
			"target":34962
		},
		{
			"buffer":0,
			"byteLength":12632064,
			"byteOffset":95917752,
			"target":34963
		}
	],
	"samplers":[
		{
			"magFilter":9729,
			"minFilter":9987
		}
	],
	"buffers":[
		{
			"byteLength":108549816,
			"uri":"scene.bin"
		}
	]
}
