{
	"asset":{
		"generator":"Khronos glTF Blender I/O v4.3.47",
		"version":"2.0"
	},
	"scene":0,
	"scenes":[
		{
			"name":"Scene",
			"nodes":[
				7,
				8
			]
		}
	],
	"nodes":[
		{
			"mesh":0,
			"name":"Cube.001_0"
		},
		{
			"children":[
				0
			],
			"name":"Cube.001",
			"translation":[
				2.3499999046325684,
				0,
				-1.489999532699585
			]
		},
		{
			"mesh":1,
			"name":"Cube.002_0"
		},
		{
			"children":[
				2
			],
			"name":"Cube.002",
			"translation":[
				-2.3499999046325684,
				0,
				-1.489999532699585
			]
		},
		{
			"mesh":2,
			"name":"Cube.003_0"
		},
		{
			"children":[
				4
			],
			"name":"Cube.003",
			"translation":[
				0,
				0.8000000715255737,
				-1.0499993562698364
			]
		},
		{
			"children":[
				1,
				3,
				5
			],
			"name":"Root"
		},
		{
			"children":[
				6
			],
			"name":"Sketchfab_model",
			"rotation":[
				-0.70710688829422,
				0,
				0,
				0.7071066498756409
			],
			"translation":[
				0,
				2.9558746814727783,
				0
			]
		},
		{
			"mesh":3,
			"name":"Plane",
			"scale":[
				4.857747554779053,
				2.692643165588379,
				2.692643165588379
			],
			"translation":[
				0,
				5.893306732177734,
				0
			]
		}
	],
	"materials":[
		{
			"doubleSided":true,
			"name":"Wood",
			"pbrMetallicRoughness":{
				"baseColorTexture":{
					"index":0
				},
				"metallicFactor":0,
				"roughnessFactor":0.6000000238418579
			}
		}
	],
	"meshes":[
		{
			"name":"Cube.001_0",
			"primitives":[
				{
					"attributes":{
						"POSITION":0
					},
					"indices":1,
					"material":0
				}
			]
		},
		{
			"name":"Cube.002_0",
			"primitives":[
				{
					"attributes":{
						"POSITION":2
					},
					"indices":1,
					"material":0
				}
			]
		},
		{
			"name":"Cube.003_0",
			"primitives":[
				{
					"attributes":{
						"POSITION":3
					},
					"indices":1,
					"material":0
				}
			]
		},
		{
			"name":"Plane.001",
			"primitives":[
				{
					"attributes":{
						"POSITION":4
					},
					"indices":5
				}
			]
		}
	],
	"textures":[
		{
			"sampler":0,
			"source":0
		}
	],
	"images":[
		{
			"mimeType":"image/png",
			"name":"Wood_baseColor",
			"uri":"Wood_baseColor.png"
		}
	],
	"accessors":[
		{
			"bufferView":0,
			"componentType":5126,
			"count":24,
			"max":[
				0.05000000074505806,
				1.2999999523162842,
				1.440000057220459
			],
			"min":[
				-0.05000000074505806,
				-1.2999999523162842,
				-1.440000057220459
			],
			"type":"VEC3"
		},
		{
			"bufferView":1,
			"componentType":5123,
			"count":36,
			"type":"SCALAR"
		},
		{
			"bufferView":2,
			"componentType":5126,
			"count":24,
			"max":[
				0.05000000074505806,
				1.2999999523162842,
				1.440000057220459
			],
			"min":[
				-0.05000000074505806,
				-1.2999999523162842,
				-1.440000057220459
			],
			"type":"VEC3"
		},
		{
			"bufferView":3,
			"componentType":5126,
			"count":24,
			"max":[
				2.299999952316284,
				0.07500000298023224,
				1
			],
			"min":[
				-2.299999952316284,
				-0.07500000298023224,
				-1
			],
			"type":"VEC3"
		},
		{
			"bufferView":4,
			"componentType":5126,
			"count":1997997,
			"max":[
				0.6159419417381287,
				-1.0556377172470093,
				0.7035161256790161
			],
			"min":[
				-0.6198440194129944,
				-2.1004183292388916,
				-0.7330945730209351
			],
			"type":"VEC3"
		},
		{
			"bufferView":5,
			"componentType":5125,
			"count":3158016,
			"type":"SCALAR"
		}
	],
	"bufferViews":[
		{
			"buffer":0,
			"byteLength":288,
			"byteOffset":0,
			"target":34962
		},
		{
			"buffer":0,
			"byteLength":72,
			"byteOffset":288,
			"target":34963
		},
		{
			"buffer":0,
			"byteLength":288,
			"byteOffset":360,
			"target":34962
		},
		{
			"buffer":0,
			"byteLength":288,
			"byteOffset":648,
			"target":34962
		},
		{
			"buffer":0,
			"byteLength":23975964,
			"byteOffset":936,
			"target":34962
		},
		{
			"buffer":0,
			"byteLength":12632064,
			"byteOffset":23976900,
			"target":34963
		}
	],
	"samplers":[
		{
			"magFilter":9729,
			"minFilter":9987
		}
	],
	"buffers":[
		{
			"byteLength":36608964,
			"uri":"untitled.bin"
		}
	]
}
