{
	"asset":{
		"generator":"Khronos glTF Blender I/O v4.3.47",
		"version":"2.0"
	},
	"scene":0,
	"scenes":[
		{
			"name":"Scene",
			"nodes":[
				2,
				3
			]
		}
	],
	"nodes":[
		{
			"mesh":0,
			"name":"Object_2",
			"scale":[
				0.14724552631378174,
				0.14724552631378174,
				0.14724552631378174
			]
		},
		{
			"children":[
				0
			],
			"name":"COAT_HANGER Full v2.stl.cleaner.materialmerger.gles"
		},
		{
			"children":[
				1
			],
			"name":"Sketchfab_model",
			"rotation":[
				-0.70710688829422,
				0,
				0,
				0.7071066498756409
			],
			"scale":[
				0.018784835934638977,
				0.018784837797284126,
				0.018784837797284126
			]
		},
		{
			"mesh":1,
			"name":"Plane",
			"scale":[
				2.123744249343872,
				2.123744249343872,
				2.123744249343872
			],
			"translation":[
				0,
				5.7678961753845215,
				0
			]
		}
	],
	"materials":[
		{
			"doubleSided":true,
			"name":"Scene_-_Root",
			"pbrMetallicRoughness":{
				"metallicFactor":0,
				"roughnessFactor":0.6000000238418579
			}
		}
	],
	"meshes":[
		{
			"name":"Object_0",
			"primitives":[
				{
					"attributes":{
						"POSITION":0,
						"NORMAL":1,
						"COLOR_0":2
					},
					"indices":3,
					"material":0
				}
			]
		},
		{
			"name":"Plane.004",
			"primitives":[
				{
					"attributes":{
						"POSITION":4,
						"NORMAL":5,
						"TEXCOORD_0":6,
						"TANGENT":7
					},
					"indices":8
				}
			]
		}
	],
	"accessors":[
		{
			"bufferView":0,
			"componentType":5126,
			"count":14178,
			"max":[
				167.88438415527344,
				187.077392578125,
				1724.777587890625
			],
			"min":[
				-167.88438415527344,
				-133.29917907714844,
				2.368446111679077
			],
			"type":"VEC3"
		},
		{
			"bufferView":1,
			"componentType":5126,
			"count":14178,
			"type":"VEC3"
		},
		{
			"bufferView":2,
			"componentType":5126,
			"count":14178,
			"type":"VEC3"
		},
		{
			"bufferView":3,
			"componentType":5123,
			"count":70410,
			"type":"SCALAR"
		},
		{
			"bufferView":4,
			"componentType":5126,
			"count":528380,
			"max":[
				0.5033013820648193,
				-0.40461966395378113,
				0.5687378644943237
			],
			"min":[
				-0.4354623556137085,
				-1.6361292600631714,
				-0.65522700548172
			],
			"type":"VEC3"
		},
		{
			"bufferView":5,
			"componentType":5126,
			"count":528380,
			"type":"VEC3"
		},
		{
			"bufferView":6,
			"componentType":5126,
			"count":528380,
			"type":"VEC2"
		},
		{
			"bufferView":7,
			"componentType":5126,
			"count":528380,
			"type":"VEC4"
		},
		{
			"bufferView":8,
			"componentType":5125,
			"count":792576,
			"type":"SCALAR"
		}
	],
	"bufferViews":[
		{
			"buffer":0,
			"byteLength":170136,
			"byteOffset":0,
			"target":34962
		},
		{
			"buffer":0,
			"byteLength":170136,
			"byteOffset":170136,
			"target":34962
		},
		{
			"buffer":0,
			"byteLength":170136,
			"byteOffset":340272,
			"target":34962
		},
		{
			"buffer":0,
			"byteLength":140820,
			"byteOffset":510408,
			"target":34963
		},
		{
			"buffer":0,
			"byteLength":6340560,
			"byteOffset":651228,
			"target":34962
		},
		{
			"buffer":0,
			"byteLength":6340560,
			"byteOffset":6991788,
			"target":34962
		},
		{
			"buffer":0,
			"byteLength":4227040,
			"byteOffset":13332348,
			"target":34962
		},
		{
			"buffer":0,
			"byteLength":8454080,
			"byteOffset":17559388,
			"target":34962
		},
		{
			"buffer":0,
			"byteLength":3170304,
			"byteOffset":26013468,
			"target":34963
		}
	],
	"buffers":[
		{
			"byteLength":29183772,
			"uri":"scene.bin"
		}
	]
}
